<svg width="672" height="672" viewBox="0 0 672 672" fill="none" xmlns="http://www.w3.org/2000/svg">
<g filter="url(#filter0_f_2003_303)">
<path d="M336 150L339.718 265.052L355.442 151.019L347.114 265.829L374.672 154.065L354.388 267.375L393.477 159.103L361.46 269.673L411.653 166.081L368.254 272.698L429 174.919L374.694 276.416L445.328 185.523L380.71 280.787L460.458 197.775L386.237 285.763L474.225 211.542L391.213 291.29L486.477 226.672L395.584 297.306L497.081 243L399.302 303.746L505.919 260.347L402.327 310.54L512.897 278.523L404.625 317.612L517.935 297.328L406.171 324.886L520.981 316.558L406.948 332.282L522 336L406.948 339.718L520.981 355.442L406.171 347.114L517.935 374.672L404.625 354.388L512.897 393.477L402.327 361.46L505.919 411.653L399.302 368.254L497.081 429L395.584 374.694L486.477 445.328L391.213 380.71L474.225 460.458L386.237 386.237L460.458 474.225L380.71 391.213L445.328 486.477L374.694 395.584L429 497.081L368.254 399.302L411.653 505.919L361.46 402.327L393.477 512.897L354.388 404.625L374.672 517.935L347.114 406.171L355.442 520.981L339.718 406.948L336 522L332.282 406.948L316.558 520.981L324.886 406.171L297.328 517.935L317.612 404.625L278.523 512.897L310.54 402.327L260.347 505.919L303.746 399.302L243 497.081L297.306 395.584L226.672 486.477L291.29 391.213L211.542 474.225L285.763 386.237L197.775 460.458L280.787 380.71L185.523 445.328L276.416 374.694L174.919 429L272.698 368.254L166.081 411.653L269.673 361.46L159.103 393.477L267.375 354.388L154.065 374.672L265.829 347.114L151.019 355.442L265.052 339.718L150 336L265.052 332.282L151.019 316.558L265.829 324.886L154.065 297.328L267.375 317.612L159.103 278.523L269.673 310.54L166.081 260.347L272.698 303.746L174.919 243L276.416 297.306L185.523 226.672L280.787 291.29L197.775 211.542L285.763 285.763L211.542 197.775L291.29 280.787L226.672 185.523L297.306 276.416L243 174.919L303.746 272.698L260.347 166.081L310.54 269.673L278.523 159.103L317.612 267.375L297.328 154.065L324.886 265.829L316.558 151.019L332.282 265.052L336 150Z" fill="#3345C9"/>
</g>
<defs>
<filter id="filter0_f_2003_303" x="0" y="0" width="672" height="672" filterUnits="userSpaceOnUse" color-interpolation-filters="sRGB">
<feFlood flood-opacity="0" result="BackgroundImageFix"/>
<feBlend mode="normal" in="SourceGraphic" in2="BackgroundImageFix" result="shape"/>
<feGaussianBlur stdDeviation="75" result="effect1_foregroundBlur_2003_303"/>
</filter>
</defs>
</svg>
