<svg width="739" height="797" viewBox="0 0 739 797" fill="none" xmlns="http://www.w3.org/2000/svg">
<g filter="url(#filter0_f_2003_659)">
<path d="M340.307 150L345.274 303.712L366.282 151.361L355.155 304.75L391.973 155.43L364.873 306.816L417.097 162.162L374.322 309.886L441.381 171.484L383.399 313.927L464.557 183.293L392.003 318.895L486.371 197.459L400.041 324.734L506.586 213.829L407.424 331.382L524.978 232.221L414.072 338.766L541.347 252.435L419.912 346.804L555.514 274.25L424.88 355.408L567.323 297.426L428.921 364.484L576.644 321.709L431.991 373.933L583.376 346.834L434.057 383.651L587.445 372.525L435.095 393.532L588.807 398.5L435.095 403.468L587.445 424.475L434.057 413.349L583.376 450.166L431.991 423.067L576.644 475.291L428.921 432.516L567.323 499.574L424.88 441.592L555.514 522.75L419.912 450.196L541.347 544.565L414.072 458.234L524.978 564.779L407.424 465.618L506.586 583.172L400.041 472.266L486.371 599.541L392.003 478.105L464.557 613.707L383.399 483.073L441.381 625.516L374.322 487.114L417.097 634.838L364.873 490.184L391.973 641.57L355.155 492.25L366.282 645.639L345.274 493.288L340.307 647L335.339 493.288L314.331 645.639L325.458 492.25L288.641 641.57L315.74 490.184L263.516 634.838L306.291 487.114L239.233 625.516L297.215 483.073L216.057 613.707L288.61 478.105L194.242 599.541L280.572 472.266L174.028 583.172L273.189 465.618L155.635 564.779L266.541 458.234L139.266 544.565L260.701 450.196L125.099 522.75L255.734 441.592L113.291 499.574L251.693 432.516L103.969 475.291L248.622 423.067L97.237 450.166L246.557 413.349L93.168 424.475L245.518 403.468L91.8066 398.5L245.518 393.532L93.168 372.525L246.557 383.651L97.237 346.834L248.622 373.933L103.969 321.709L251.693 364.484L113.291 297.426L255.734 355.408L125.099 274.25L260.701 346.804L139.266 252.435L266.541 338.766L155.635 232.221L273.189 331.382L174.028 213.829L280.572 324.734L194.242 197.459L288.61 318.895L216.057 183.293L297.215 313.927L239.233 171.484L306.291 309.886L263.516 162.162L315.74 306.816L288.641 155.43L325.458 304.75L314.331 151.361L335.339 303.712L340.307 150Z" fill="#B24DF1"/>
</g>
<defs>
<filter id="filter0_f_2003_659" x="-58.1934" y="0" width="797" height="797" filterUnits="userSpaceOnUse" color-interpolation-filters="sRGB">
<feFlood flood-opacity="0" result="BackgroundImageFix"/>
<feBlend mode="normal" in="SourceGraphic" in2="BackgroundImageFix" result="shape"/>
<feGaussianBlur stdDeviation="75" result="effect1_foregroundBlur_2003_659"/>
</filter>
</defs>
</svg>
