<svg width="848" height="848" viewBox="0 0 848 848" fill="none" xmlns="http://www.w3.org/2000/svg">
<g filter="url(#filter0_f_2003_661)">
<path d="M424 150L429.477 319.485L452.641 151.501L440.372 320.63L480.968 155.988L451.088 322.907L508.671 163.411L461.506 326.293L535.446 173.689L471.514 330.748L561 186.709L481.001 336.226L585.053 202.329L489.864 342.665L607.342 220.378L498.005 349.995L627.622 240.658L505.335 358.136L645.671 262.947L511.774 366.999L661.291 287L517.252 376.486L674.311 312.554L521.707 386.494L684.589 339.329L525.093 396.912L692.012 367.032L527.37 407.628L696.499 395.359L528.515 418.523L698 424L528.515 429.477L696.499 452.641L527.37 440.372L692.012 480.968L525.093 451.088L684.589 508.671L521.707 461.506L674.311 535.446L517.252 471.514L661.291 561L511.774 481.001L645.671 585.053L505.335 489.864L627.622 607.342L498.005 498.005L607.342 627.622L489.864 505.335L585.053 645.671L481.001 511.774L561 661.291L471.514 517.252L535.446 674.311L461.506 521.707L508.671 684.589L451.088 525.093L480.968 692.012L440.372 527.37L452.641 696.499L429.477 528.515L424 698L418.523 528.515L395.359 696.499L407.628 527.37L367.032 692.012L396.912 525.093L339.329 684.589L386.494 521.707L312.554 674.311L376.486 517.252L287 661.291L366.999 511.774L262.947 645.671L358.136 505.335L240.658 627.622L349.995 498.005L220.378 607.342L342.665 489.864L202.329 585.053L336.226 481.001L186.709 561L330.748 471.514L173.689 535.446L326.293 461.506L163.411 508.671L322.907 451.088L155.988 480.968L320.63 440.372L151.501 452.641L319.485 429.477L150 424L319.485 418.523L151.501 395.359L320.63 407.628L155.988 367.032L322.907 396.912L163.411 339.329L326.293 386.494L173.689 312.554L330.748 376.486L186.709 287L336.226 366.999L202.329 262.947L342.665 358.136L220.378 240.658L349.995 349.995L240.658 220.378L358.136 342.665L262.947 202.329L366.999 336.226L287 186.709L376.486 330.748L312.554 173.689L386.494 326.293L339.329 163.411L396.912 322.907L367.032 155.988L407.628 320.63L395.359 151.501L418.523 319.485L424 150Z" fill="#3345C9"/>
</g>
<defs>
<filter id="filter0_f_2003_661" x="0" y="0" width="848" height="848" filterUnits="userSpaceOnUse" color-interpolation-filters="sRGB">
<feFlood flood-opacity="0" result="BackgroundImageFix"/>
<feBlend mode="normal" in="SourceGraphic" in2="BackgroundImageFix" result="shape"/>
<feGaussianBlur stdDeviation="75" result="effect1_foregroundBlur_2003_661"/>
</filter>
</defs>
</svg>
