<svg width="743" height="796" viewBox="0 0 743 796" fill="none" xmlns="http://www.w3.org/2000/svg">
<g filter="url(#filter0_f_2003_660)">
<path d="M398 150L402.958 303.402L423.923 151.359L412.819 304.439L449.562 155.419L422.517 306.5L474.636 162.138L431.947 309.564L498.871 171.441L441.005 313.597L522 183.226L449.592 318.555L543.771 197.364L457.614 324.383L563.944 213.7L464.983 331.017L582.3 232.056L471.617 338.386L598.636 252.229L477.445 346.408L612.774 274L482.403 354.995L624.559 297.129L486.436 364.053L633.862 321.364L489.5 373.483L640.581 346.438L491.561 383.181L644.641 372.077L492.598 393.042L646 398L492.598 402.958L644.641 423.923L491.561 412.819L640.581 449.562L489.5 422.517L633.862 474.636L486.436 431.947L624.559 498.871L482.403 441.005L612.774 522L477.445 449.592L598.636 543.771L471.617 457.614L582.3 563.944L464.983 464.983L563.944 582.3L457.614 471.617L543.771 598.636L449.592 477.445L522 612.774L441.005 482.403L498.871 624.559L431.947 486.436L474.636 633.862L422.517 489.5L449.562 640.581L412.819 491.561L423.923 644.641L402.958 492.598L398 646L393.042 492.598L372.077 644.641L383.181 491.561L346.438 640.581L373.483 489.5L321.364 633.862L364.053 486.436L297.129 624.559L354.995 482.403L274 612.774L346.408 477.445L252.229 598.636L338.386 471.617L232.056 582.3L331.017 464.983L213.7 563.944L324.383 457.614L197.364 543.771L318.555 449.592L183.226 522L313.597 441.005L171.441 498.871L309.564 431.947L162.138 474.636L306.5 422.517L155.419 449.562L304.439 412.819L151.359 423.923L303.402 402.958L150 398L303.402 393.042L151.359 372.077L304.439 383.181L155.419 346.438L306.5 373.483L162.138 321.364L309.564 364.053L171.441 297.129L313.597 354.995L183.226 274L318.555 346.408L197.364 252.229L324.383 338.386L213.7 232.056L331.017 331.017L232.056 213.7L338.386 324.383L252.229 197.364L346.408 318.555L274 183.226L354.995 313.597L297.129 171.441L364.053 309.564L321.364 162.138L373.483 306.5L346.438 155.419L383.181 304.439L372.077 151.359L393.042 303.402L398 150Z" fill="#B24DF1"/>
</g>
<defs>
<filter id="filter0_f_2003_660" x="0" y="0" width="796" height="796" filterUnits="userSpaceOnUse" color-interpolation-filters="sRGB">
<feFlood flood-opacity="0" result="BackgroundImageFix"/>
<feBlend mode="normal" in="SourceGraphic" in2="BackgroundImageFix" result="shape"/>
<feGaussianBlur stdDeviation="75" result="effect1_foregroundBlur_2003_660"/>
</filter>
</defs>
</svg>
