<svg width="685" height="685" viewBox="0 0 685 685" fill="none" xmlns="http://www.w3.org/2000/svg">
<g filter="url(#filter0_f_2003_304)">
<path d="M342.5 150L346.348 269.072L362.622 151.055L354.002 269.877L382.523 154.207L361.531 271.477L401.986 159.422L368.85 273.855L420.797 166.643L375.881 276.986L438.75 175.79L382.546 280.834L455.649 186.764L388.773 285.358L471.308 199.445L394.492 290.508L485.555 213.692L399.642 296.227L498.236 229.351L404.166 302.454L509.21 246.25L408.014 309.119L518.357 264.203L411.145 316.15L525.578 283.014L413.523 323.469L530.793 302.477L415.123 330.998L533.945 322.378L415.928 338.652L535 342.5L415.928 346.348L533.945 362.622L415.123 354.002L530.793 382.523L413.523 361.531L525.578 401.986L411.145 368.85L518.357 420.797L408.014 375.881L509.21 438.75L404.166 382.546L498.236 455.649L399.642 388.773L485.555 471.308L394.492 394.492L471.308 485.555L388.773 399.642L455.649 498.236L382.546 404.166L438.75 509.21L375.881 408.014L420.797 518.357L368.85 411.145L401.986 525.578L361.531 413.523L382.523 530.793L354.002 415.123L362.622 533.945L346.348 415.928L342.5 535L338.652 415.928L322.378 533.945L330.998 415.123L302.477 530.793L323.469 413.523L283.014 525.578L316.15 411.145L264.203 518.357L309.119 408.014L246.25 509.21L302.454 404.166L229.351 498.236L296.227 399.642L213.692 485.555L290.508 394.492L199.445 471.308L285.358 388.773L186.764 455.649L280.834 382.546L175.79 438.75L276.986 375.881L166.643 420.797L273.855 368.85L159.422 401.986L271.477 361.531L154.207 382.523L269.877 354.002L151.055 362.622L269.072 346.348L150 342.5L269.072 338.652L151.055 322.378L269.877 330.998L154.207 302.477L271.477 323.469L159.422 283.014L273.855 316.15L166.643 264.203L276.986 309.119L175.79 246.25L280.834 302.454L186.764 229.351L285.358 296.227L199.445 213.692L290.508 290.508L213.692 199.445L296.227 285.358L229.351 186.764L302.454 280.834L246.25 175.79L309.119 276.986L264.203 166.643L316.15 273.855L283.014 159.422L323.469 271.477L302.477 154.207L330.998 269.877L322.378 151.055L338.652 269.072L342.5 150Z" fill="#3345C9"/>
</g>
<defs>
<filter id="filter0_f_2003_304" x="0" y="0" width="685" height="685" filterUnits="userSpaceOnUse" color-interpolation-filters="sRGB">
<feFlood flood-opacity="0" result="BackgroundImageFix"/>
<feBlend mode="normal" in="SourceGraphic" in2="BackgroundImageFix" result="shape"/>
<feGaussianBlur stdDeviation="75" result="effect1_foregroundBlur_2003_304"/>
</filter>
</defs>
</svg>
