<svg width="518" height="685" viewBox="0 0 518 685" fill="none" xmlns="http://www.w3.org/2000/svg">
<g filter="url(#filter0_f_2003_305)">
<path d="M175.5 150L179.348 269.072L195.622 151.055L187.002 269.877L215.523 154.207L194.531 271.477L234.986 159.422L201.85 273.855L253.797 166.643L208.881 276.986L271.75 175.79L215.546 280.834L288.649 186.764L221.773 285.358L304.308 199.445L227.492 290.508L318.555 213.692L232.642 296.227L331.236 229.351L237.166 302.454L342.21 246.25L241.014 309.119L351.357 264.203L244.145 316.15L358.578 283.014L246.523 323.469L363.793 302.477L248.123 330.998L366.945 322.378L248.928 338.652L368 342.5L248.928 346.348L366.945 362.622L248.123 354.002L363.793 382.523L246.523 361.531L358.578 401.986L244.145 368.85L351.357 420.797L241.014 375.881L342.21 438.75L237.166 382.546L331.236 455.649L232.642 388.773L318.555 471.308L227.492 394.492L304.308 485.555L221.773 399.642L288.649 498.236L215.546 404.166L271.75 509.21L208.881 408.014L253.797 518.357L201.85 411.145L234.986 525.578L194.531 413.523L215.523 530.793L187.002 415.123L195.622 533.945L179.348 415.928L175.5 535L171.652 415.928L155.378 533.945L163.998 415.123L135.477 530.793L156.469 413.523L116.014 525.578L149.15 411.145L97.2032 518.357L142.119 408.014L79.25 509.21L135.454 404.166L62.3513 498.236L129.227 399.642L46.6924 485.555L123.508 394.492L32.4446 471.308L118.358 388.773L19.7642 455.649L113.834 382.546L8.79012 438.75L109.986 375.881L-0.357498 420.797L106.855 368.85L-7.57838 401.986L104.477 361.531L-12.7934 382.523L102.877 354.002L-15.9455 362.622L102.072 346.348L-17 342.5L102.072 338.652L-15.9455 322.378L102.877 330.998L-12.7934 302.477L104.477 323.469L-7.57838 283.014L106.855 316.15L-0.357498 264.203L109.986 309.119L8.79012 246.25L113.834 302.454L19.7642 229.351L118.358 296.227L32.4446 213.692L123.508 290.508L46.6924 199.445L129.227 285.358L62.3513 186.764L135.454 280.834L79.25 175.79L142.119 276.986L97.2032 166.643L149.15 273.855L116.014 159.422L156.469 271.477L135.477 154.207L163.998 269.877L155.378 151.055L171.652 269.072L175.5 150Z" fill="#3345C9"/>
</g>
<defs>
<filter id="filter0_f_2003_305" x="-167" y="0" width="685" height="685" filterUnits="userSpaceOnUse" color-interpolation-filters="sRGB">
<feFlood flood-opacity="0" result="BackgroundImageFix"/>
<feBlend mode="normal" in="SourceGraphic" in2="BackgroundImageFix" result="shape"/>
<feGaussianBlur stdDeviation="75" result="effect1_foregroundBlur_2003_305"/>
</filter>
</defs>
</svg>
