<svg width="799" height="799" viewBox="0 0 799 799" fill="none" xmlns="http://www.w3.org/2000/svg">
<g filter="url(#filter0_f_2003_301)">
<path d="M399.5 150L404.488 304.33L425.58 151.367L414.408 305.373L451.374 155.452L424.166 307.447L476.6 162.211L433.653 310.529L500.981 171.57L442.766 314.587L524.25 183.427L451.404 319.574L546.152 197.65L459.475 325.438L566.448 214.085L466.888 332.112L584.915 232.552L473.562 339.525L601.35 252.848L479.426 347.596L615.573 274.75L484.413 356.234L627.43 298.019L488.471 365.347L636.789 322.4L491.553 374.834L643.548 347.626L493.627 384.592L647.633 373.42L494.67 394.512L649 399.5L494.67 404.488L647.633 425.58L493.627 414.408L643.548 451.374L491.553 424.166L636.789 476.6L488.471 433.653L627.43 500.981L484.413 442.766L615.573 524.25L479.426 451.404L601.35 546.152L473.562 459.475L584.915 566.448L466.888 466.888L566.448 584.915L459.475 473.562L546.152 601.35L451.404 479.426L524.25 615.573L442.766 484.413L500.981 627.43L433.653 488.471L476.6 636.789L424.166 491.553L451.374 643.548L414.408 493.627L425.58 647.633L404.488 494.67L399.5 649L394.512 494.67L373.42 647.633L384.592 493.627L347.626 643.548L374.834 491.553L322.4 636.789L365.347 488.471L298.019 627.43L356.234 484.413L274.75 615.573L347.596 479.426L252.848 601.35L339.525 473.562L232.552 584.915L332.112 466.888L214.085 566.448L325.438 459.475L197.65 546.152L319.574 451.404L183.427 524.25L314.587 442.766L171.57 500.981L310.529 433.653L162.211 476.6L307.447 424.166L155.452 451.374L305.373 414.408L151.367 425.58L304.33 404.488L150 399.5L304.33 394.512L151.367 373.42L305.373 384.592L155.452 347.626L307.447 374.834L162.211 322.4L310.529 365.347L171.57 298.019L314.587 356.234L183.427 274.75L319.574 347.596L197.65 252.848L325.438 339.525L214.085 232.552L332.112 332.112L232.552 214.085L339.525 325.438L252.848 197.65L347.596 319.574L274.75 183.427L356.234 314.587L298.019 171.57L365.347 310.529L322.4 162.211L374.834 307.447L347.626 155.452L384.592 305.373L373.42 151.367L394.512 304.33L399.5 150Z" fill="#B24DF1"/>
</g>
<defs>
<filter id="filter0_f_2003_301" x="0" y="0" width="799" height="799" filterUnits="userSpaceOnUse" color-interpolation-filters="sRGB">
<feFlood flood-opacity="0" result="BackgroundImageFix"/>
<feBlend mode="normal" in="SourceGraphic" in2="BackgroundImageFix" result="shape"/>
<feGaussianBlur stdDeviation="75" result="effect1_foregroundBlur_2003_301"/>
</filter>
</defs>
</svg>
